<?xml version="1.0" encoding="UTF-8"?>
<!DOCTYPE svg PUBLIC "-//W3C//DTD SVG 1.1//EN" "http://www.w3.org/Graphics/SVG/1.1/DTD/svg11.dtd">
<svg xmlns="http://www.w3.org/2000/svg" version="1.1" width="500px" height="73px" style="shape-rendering:geometricPrecision; text-rendering:geometricPrecision; image-rendering:optimizeQuality; fill-rule:evenodd; clip-rule:evenodd" xmlns:xlink="http://www.w3.org/1999/xlink">
<g><path style="opacity:0.896" fill="#000000" d="M 70.5,2.5 C 74.5,2.5 78.5,2.5 82.5,2.5C 82.5,24.5 82.5,46.5 82.5,68.5C 78.5,68.5 74.5,68.5 70.5,68.5C 70.5,46.5 70.5,24.5 70.5,2.5 Z"/></g>
<g><path style="opacity:0.853" fill="#000000" d="M 130.5,2.5 C 134.5,2.5 138.5,2.5 142.5,2.5C 142.5,6.16667 142.5,9.83333 142.5,13.5C 138.5,13.5 134.5,13.5 130.5,13.5C 130.5,9.83333 130.5,6.16667 130.5,2.5 Z"/></g>
<g><path style="opacity:0.931" fill="#000000" d="M 14.5,7.5 C 28.8333,7.5 43.1667,7.5 57.5,7.5C 57.5,11.5 57.5,15.5 57.5,19.5C 44.1625,19.3334 30.8292,19.5001 17.5,20C 13.5,23.6667 13.5,27.3333 17.5,31C 27.8333,31.3333 38.1667,31.6667 48.5,32C 58.1993,34.0362 63.1993,40.0362 63.5,50C 63.0901,60.4085 57.7567,66.4085 47.5,68C 32.8371,68.4999 18.1705,68.6666 3.5,68.5C 3.5,64.5 3.5,60.5 3.5,56.5C 17.8372,56.6666 32.1705,56.4999 46.5,56C 52.6901,52.6691 53.0235,48.6691 47.5,44C 36.8333,43.6667 26.1667,43.3333 15.5,43C 5.00442,39.1868 0.837749,31.6868 3,20.5C 4.58934,14.0828 8.42267,9.74947 14.5,7.5 Z"/></g>
<g><path style="opacity:0.93" fill="#000000" d="M 278.5,7.5 C 292.833,7.5 307.167,7.5 321.5,7.5C 321.5,11.5 321.5,15.5 321.5,19.5C 307.829,19.3334 294.163,19.5001 280.5,20C 276.296,24.1555 276.629,27.8221 281.5,31C 291.833,31.3333 302.167,31.6667 312.5,32C 325.388,36.6115 329.554,45.4448 325,58.5C 321.909,64.2972 317.076,67.4638 310.5,68C 295.837,68.4999 281.17,68.6666 266.5,68.5C 266.5,64.5 266.5,60.5 266.5,56.5C 281.17,56.6666 295.837,56.4999 310.5,56C 314.213,54.3088 315.379,51.4755 314,47.5C 313.5,45.6667 312.333,44.5 310.5,44C 299.833,43.6667 289.167,43.3333 278.5,43C 267.547,38.2583 263.714,30.0916 267,18.5C 269.437,13.2262 273.271,9.55952 278.5,7.5 Z"/></g>
<g><path style="opacity:0.918" fill="#000000" d="M 85.5,21.5 C 92.8409,21.3337 100.174,21.5003 107.5,22C 114.474,22.9765 118.974,26.8099 121,33.5C 121.5,45.1619 121.667,56.8286 121.5,68.5C 117.5,68.5 113.5,68.5 109.5,68.5C 109.667,57.495 109.5,46.495 109,35.5C 108.25,34.8742 107.416,34.3742 106.5,34C 99.5079,33.5004 92.5079,33.3337 85.5,33.5C 85.5,29.5 85.5,25.5 85.5,21.5 Z"/></g>
<g><path style="opacity:0.908" fill="#000000" d="M 130.5,21.5 C 134.5,21.5 138.5,21.5 142.5,21.5C 142.5,37.1667 142.5,52.8333 142.5,68.5C 138.5,68.5 134.5,68.5 130.5,68.5C 130.5,52.8333 130.5,37.1667 130.5,21.5 Z"/></g>
<g><path style="opacity:0.907" fill="#000000" d="M 156.5,21.5 C 165.839,21.3335 175.173,21.5002 184.5,22C 193.679,22.8488 199.512,27.6822 202,36.5C 202.5,47.1615 202.667,57.8281 202.5,68.5C 198.5,68.5 194.5,68.5 190.5,68.5C 190.951,58.0623 190.451,47.729 189,37.5C 187.681,35.5125 185.848,34.3459 183.5,34C 176.842,33.5004 170.175,33.3337 163.5,33.5C 163.5,45.1667 163.5,56.8333 163.5,68.5C 159.5,68.5 155.5,68.5 151.5,68.5C 151.333,54.1628 151.5,39.8295 152,25.5C 152.907,23.3909 154.407,22.0576 156.5,21.5 Z"/></g>
<g><path style="opacity:0.912" fill="#000000" d="M 218.5,21.5 C 227.506,21.3336 236.506,21.5002 245.5,22C 251.627,22.6413 255.794,25.8079 258,31.5C 258.667,40.1667 258.667,48.8333 258,57.5C 256.298,63.8639 252.132,67.3639 245.5,68C 237.833,68.6667 230.167,68.6667 222.5,68C 213.32,67.1553 208.654,62.1553 208.5,53C 208.213,45.9679 211.213,40.9679 217.5,38C 226.16,37.5002 234.827,37.3336 243.5,37.5C 243.5,41.1667 243.5,44.8333 243.5,48.5C 236.159,48.3337 228.826,48.5003 221.5,49C 219.006,51.4231 219.006,53.7564 221.5,56C 229.5,56.6667 237.5,56.6667 245.5,56C 246,55.5 246.5,55 247,54.5C 247.667,48.1667 247.667,41.8333 247,35.5C 246.5,35 246,34.5 245.5,34C 236.506,33.5002 227.506,33.3336 218.5,33.5C 218.5,29.5 218.5,25.5 218.5,21.5 Z"/></g>
<g><path style="opacity:0.918" fill="#000000" d="M 346.5,21.5 C 357.167,21.5 367.833,21.5 378.5,21.5C 378.5,25.5 378.5,29.5 378.5,33.5C 368.161,33.3335 357.828,33.5002 347.5,34C 346.584,34.3742 345.75,34.8742 345,35.5C 344.333,41.8333 344.333,48.1667 345,54.5C 345.75,55.1258 346.584,55.6258 347.5,56C 357.828,56.4998 368.161,56.6665 378.5,56.5C 378.5,60.5 378.5,64.5 378.5,68.5C 367.828,68.6665 357.161,68.4998 346.5,68C 339.552,67.0523 335.052,63.2189 333,56.5C 332.333,48.8333 332.333,41.1667 333,33.5C 335.233,26.757 339.733,22.757 346.5,21.5 Z"/></g>
<g><path style="opacity:0.914" fill="#000000" d="M 393.5,21.5 C 402.173,21.3336 410.84,21.5002 419.5,22C 426.219,22.7631 430.719,26.2631 433,32.5C 433.667,40.5 433.667,48.5 433,56.5C 431.188,63.4892 426.688,67.3225 419.5,68C 411.833,68.6667 404.167,68.6667 396.5,68C 385.302,65.1205 381.135,57.9538 384,46.5C 385.5,42.3333 388.333,39.5 392.5,38C 401.16,37.5002 409.827,37.3336 418.5,37.5C 418.5,41.1667 418.5,44.8333 418.5,48.5C 411.159,48.3337 403.826,48.5003 396.5,49C 393.833,51.3333 393.833,53.6667 396.5,56C 404.5,56.6667 412.5,56.6667 420.5,56C 421.126,55.2496 421.626,54.4162 422,53.5C 422.667,47.8333 422.667,42.1667 422,36.5C 421.626,35.5838 421.126,34.7504 420.5,34C 411.506,33.5002 402.506,33.3336 393.5,33.5C 393.5,29.5 393.5,25.5 393.5,21.5 Z"/></g>
<g><path style="opacity:0.915" fill="#000000" d="M 446.5,21.5 C 455.839,21.3335 465.173,21.5002 474.5,22C 483.679,22.8488 489.512,27.6822 492,36.5C 492.5,47.1615 492.667,57.8281 492.5,68.5C 488.5,68.5 484.5,68.5 480.5,68.5C 480.666,58.4944 480.5,48.4944 480,38.5C 478.363,36.1898 476.196,34.6898 473.5,34C 466.842,33.5004 460.175,33.3337 453.5,33.5C 453.5,45.1667 453.5,56.8333 453.5,68.5C 449.5,68.5 445.5,68.5 441.5,68.5C 441.333,54.1628 441.5,39.8295 442,25.5C 443.25,23.8065 444.75,22.4732 446.5,21.5 Z"/></g>
</svg>
